<svg xmlns="http://www.w3.org/2000/svg" xmlns:xlink="http://www.w3.org/1999/xlink" viewBox="0 0 360 360" width="360" height="360" preserveAspectRatio="xMidYMid meet" style="width: 100%; height: 100%; transform: translate3d(0px, 0px, 0px); content-visibility: visible;"><defs><clipPath id="__lottie_element_582"><rect width="360" height="360" x="0" y="0"></rect></clipPath><linearGradient id="__lottie_element_638" spreadMethod="pad" gradientUnits="userSpaceOnUse" x1="-106.7229995727539" y1="-1.5199999809265137" x2="7.9710001945495605" y2="-1.0099999904632568"><stop offset="0%" stop-color="rgb(120,168,252)"></stop><stop offset="50%" stop-color="rgb(79,116,236)"></stop><stop offset="100%" stop-color="rgb(38,64,220)"></stop></linearGradient></defs><g clip-path="url(#__lottie_element_582)"><g transform="matrix(1,0,0,1,180,180)" opacity="1" style="display: block;"><g opacity="1" transform="matrix(1,0,0,1,0,0)"><path fill="url(#__lottie_element_638)" fill-opacity="1" d=" M0.04699999839067459,-142.89100646972656 C0.04699999839067459,-142.89100646972656 -126.83899688720703,-0.06599999964237213 -126.83899688720703,-0.06599999964237213 C-126.83899688720703,-0.06599999964237213 -124.65599822998047,2.4070000648498535 -124.65599822998047,2.4070000648498535 C-124.65599822998047,2.4070000648498535 -0.03099999949336052,142.31199645996094 -0.03099999949336052,142.31199645996094 C-0.03099999949336052,142.31199645996094 126.27300262451172,0.765999972820282 126.27300262451172,0.765999972820282 C126.27300262451172,0.765999972820282 127.06199645996094,-0.14100000262260437 127.06199645996094,-0.14100000262260437 C127.06199645996094,-0.14100000262260437 0.04699999839067459,-142.89100646972656 0.04699999839067459,-142.89100646972656z"></path></g></g><g transform="matrix(4,0,0,-4,179.0019989013672,325)" opacity="1" style="display: none;"><g opacity="1" transform="matrix(1,0,0,1,16.25,18.25)"><path fill="rgb(15,29,157)" fill-opacity="1" d=" M12.527316093444824,19.998844146728516 C12.527316093444824,19.998844146728516 13.314935684204102,20.650009155273438 13.314935684204102,20.650009155273438 C13.314935684204102,20.650009155273438 -11.793702125549316,-17.681726455688477 -11.793702125549316,-17.681726455688477 C-11.793702125549316,-17.681726455688477 12.527316093444824,19.998844146728516 12.527316093444824,19.998844146728516z"></path></g></g><g transform="matrix(4,0,0,-4,179.0070037841797,324.99798583984375)" opacity="1" style="display: none;"><g opacity="1" transform="matrix(1,0,0,1,8.25,18.25)"><path fill="rgb(15,29,157)" fill-opacity="1" d=" M-6.264999866485596,-17.79800033569336 C-6.264999866485596,-17.79800033569336 22.187999725341797,17.281999588012695 22.187999725341797,17.281999588012695 C22.187999725341797,17.281999588012695 22.233999252319336,17.327999114990234 22.233999252319336,17.327999114990234 C22.233999252319336,17.327999114990234 -6.264999866485596,-17.79800033569336 -6.264999866485596,-17.79800033569336z"></path></g></g><g transform="matrix(4,0,0,-4,115.00199890136719,324.99798583984375)" opacity="1" style="display: none;"><g opacity="1" transform="matrix(1,0,0,1,8.25,18.25)"><path fill="rgb(16,45,198)" fill-opacity="1" d=" M6.25,-17.552000045776367 C6.25,-17.552000045776367 37.5620002746582,14.329000473022461 37.5620002746582,14.329000473022461 C37.5620002746582,14.329000473022461 39.875,17.375999450683594 39.875,17.375999450683594 C39.875,17.375999450683594 6.25,-17.552000045776367 6.25,-17.552000045776367z"></path></g></g><g transform="matrix(4,0,0,-4,51.00199890136719,325)" opacity="1" style="display: none;"><g opacity="1" transform="matrix(1,0,0,1,16.25,18.25)"><path fill="rgb(15,35,172)" fill-opacity="1" d=" M11.75,-17.777000427246094 C11.75,-17.777000427246094 42.797000885009766,14.180000305175781 42.797000885009766,14.180000305175781 C42.797000885009766,14.180000305175781 44.65599822998047,15.875 44.65599822998047,15.875 C44.65599822998047,15.875 11.75,-17.777000427246094 11.75,-17.777000427246094z"></path></g></g><g style="display: block;" transform="matrix(4,0,0,-4,51.00199890136719,325)" opacity="1"><g opacity="1" transform="matrix(1,0,0,1,16.299999237060547,18.25)"><path fill="rgb(15,29,157)" fill-opacity="1" d=" M15.89799976348877,-18.007999420166016 C15.89799976348877,-18.007999420166016 31.952999114990234,18 31.952999114990234,18 C31.952999114990234,18 47.94900131225586,17.996000289916992 47.94900131225586,17.996000289916992 C47.94900131225586,17.996000289916992 15.89799976348877,-18.007999420166016 15.89799976348877,-18.007999420166016z"></path></g></g><g style="display: block;" transform="matrix(4,0,0,-4,51.00199890136719,325)" opacity="1"><g opacity="1" transform="matrix(1,0,0,1,16.25,18.25)"><path fill="rgb(16,45,198)" fill-opacity="1" d=" M16,-17.996000289916992 C16,-17.996000289916992 16.007999420166016,18.007999420166016 16.007999420166016,18.007999420166016 C16.007999420166016,18.007999420166016 32.007999420166016,18 32.007999420166016,18 C32.007999420166016,18 16,-17.996000289916992 16,-17.996000289916992z"></path></g></g><g style="display: block;" transform="matrix(4,0,0,-4,51.00199890136719,325)" opacity="1"><g opacity="1" transform="matrix(1,0,0,1,16.25,18.25)"><path fill="rgb(46,95,220)" fill-opacity="1" d=" M16,-18 C16,-18 0,18 0,18 C0,18 16.007999420166016,18.007999420166016 16.007999420166016,18.007999420166016 C16.007999420166016,18.007999420166016 16,-18 16,-18z"></path></g></g><g style="display: block;" transform="matrix(4,0,0,-4,51.00199890136719,325)" opacity="1"><g opacity="1" transform="matrix(1,0,0,1,16.25,18.25)"><path fill="rgb(68,134,235)" fill-opacity="1" d=" M16,-18 C16,-18 -16,18 -16,18 C-16,18 0.004000000189989805,18.003999710083008 0.004000000189989805,18.003999710083008 C0.004000000189989805,18.003999710083008 16,-18 16,-18z"></path></g></g><g transform="matrix(4,0,0,4,180,180)" opacity="0.53" style="display: block;"></g><g transform="matrix(4,0,0,4,179.0019989013672,35)" opacity="1" style="display: none;"><g opacity="1" transform="matrix(1,0,0,1,16.25,18.25)"><path fill="rgb(33,61,209)" fill-opacity="1" d=" M12.735471725463867,15.921298027038574 C12.735471725463867,15.921298027038574 13.443233489990234,15.29667854309082 13.443233489990234,15.29667854309082 C13.443233489990234,15.29667854309082 -20.29753303527832,-17.756351470947266 -20.29753303527832,-17.756351470947266 C-20.29753303527832,-17.756351470947266 12.735471725463867,15.921298027038574 12.735471725463867,15.921298027038574z"></path></g></g><g transform="matrix(4,0,0,4,179.0070037841797,35.00199890136719)" opacity="1" style="display: none;"><g opacity="1" transform="matrix(1,0,0,1,8.25,18.25)"><path fill="rgb(33,61,209)" fill-opacity="1" d=" M-8.256999969482422,-17.493000030517578 C-8.256999969482422,-17.493000030517578 24.031999588012695,18.500999450683594 24.031999588012695,18.500999450683594 C24.031999588012695,18.500999450683594 24.014999389648438,18.514999389648438 24.014999389648438,18.514999389648438 C24.014999389648438,18.514999389648438 -8.256999969482422,-17.493000030517578 -8.256999969482422,-17.493000030517578z"></path></g></g><g transform="matrix(4,0,0,4,115.00199890136719,35.00199890136719)" opacity="1" style="display: none;"><g opacity="1" transform="matrix(1,0,0,1,8.25,18.25)"><path fill="rgb(33,33,190)" fill-opacity="1" d=" M10.519977569580078,-17.502056121826172 C10.519977569580078,-17.502056121826172 39.20555877685547,21.375003814697266 39.20555877685547,21.375003814697266 C39.20555877685547,21.375003814697266 39.580413818359375,20.795541763305664 39.580413818359375,20.795541763305664 C39.580413818359375,20.795541763305664 10.519977569580078,-17.502056121826172 10.519977569580078,-17.502056121826172z"></path></g></g><g transform="matrix(4,0,0,4,51.00199890136719,35)" opacity="1" style="display: none;"><g opacity="1" transform="matrix(1,0,0,1,16.25,18.25)"><path fill="rgb(33,61,209)" fill-opacity="1" d=" M19.521644592285156,-17.856523513793945 C19.521644592285156,-17.856523513793945 43.58348083496094,21.57488441467285 43.58348083496094,21.57488441467285 C43.58348083496094,21.57488441467285 44.89517593383789,20.673025131225586 44.89517593383789,20.673025131225586 C44.89517593383789,20.673025131225586 19.521644592285156,-17.856523513793945 19.521644592285156,-17.856523513793945z"></path></g></g><g style="display: block;" transform="matrix(4,0,0,4,51.00199890136719,35)" opacity="1"><g opacity="1" transform="matrix(1,0,0,1,16.25,18.25)"><path fill="rgb(33,61,209)" fill-opacity="1" d=" M16,-18 C16,-18 32.00400161743164,18 32.00400161743164,18 C32.00400161743164,18 48.00400161743164,18.003999710083008 48.00400161743164,18.003999710083008 C48.00400161743164,18.003999710083008 16,-18 16,-18z"></path></g></g><g style="display: block;" transform="matrix(4,0,0,4,51.00199890136719,35)" opacity="1"><g opacity="1" transform="matrix(1,0,0,1,16.25,18.25)"><path fill="rgb(51,70,246)" fill-opacity="1" d=" M16,-17.996000289916992 C16,-17.996000289916992 16.007999420166016,18.007999420166016 16.007999420166016,18.007999420166016 C16.007999420166016,18.007999420166016 32.007999420166016,18 32.007999420166016,18 C32.007999420166016,18 16,-17.996000289916992 16,-17.996000289916992z"></path></g></g><g style="display: block;" transform="matrix(4,0,0,4,51.00199890136719,35)" opacity="1"><g opacity="1" transform="matrix(1,0,0,1,16.25,18.25)"><path fill="rgb(69,118,243)" fill-opacity="1" d=" M16,-18 C16,-18 0,18 0,18 C0,18 16.007999420166016,18.007999420166016 16.007999420166016,18.007999420166016 C16.007999420166016,18.007999420166016 16,-18 16,-18z"></path></g></g><g style="display: block;" transform="matrix(4,0,0,4,51.00199890136719,35)" opacity="1"><g opacity="1" transform="matrix(1,0,0,1,16.25,18.25)"><path fill="rgb(137,184,255)" fill-opacity="1" d=" M16,-18 C16,-18 -16,18 -16,18 C-16,18 0.004000000189989805,18.003999710083008 0.004000000189989805,18.003999710083008 C0.004000000189989805,18.003999710083008 16,-18 16,-18z"></path></g></g></g></svg>